<?xml version="1.0"?>
<svg xmlns="http://www.w3.org/2000/svg" xmlns:xlink="http://www.w3.org/1999/xlink" version="1.1" id="Capa_1" x="0px" y="0px" width="512px" height="512px" viewBox="0 0 398.76 398.76" style="enable-background:new 0 0 398.76 398.76;" xml:space="preserve" class=""><g><g>
	<g>
		<g>
			<path d="M282.841,374.279h-14.799c-2.414,0-4.371-1.957-4.371-4.371s1.957-4.371,4.371-4.371h14.799     c5.088,0,9.227-4.139,9.227-9.227v-46.242c0-6.75-2.801-17.42-6.113-23.301l-34.928-61.982     c-2.887-5.127-10.584-9.623-16.467-9.623h-22.441c-5.088,0-9.227,4.139-9.227,9.227v58.48c0,5.09,4.139,9.229,9.227,9.229h47.602     c2.414,0,4.371,1.955,4.371,4.371c0,2.414-1.957,4.371-4.371,4.371h-47.602c-9.908,0-17.97-8.061-17.97-17.971v-58.48     c0-9.908,8.062-17.971,17.97-17.971h22.441c9.057,0,19.637,6.182,24.082,14.074l34.928,61.982     c4.061,7.203,7.242,19.324,7.242,27.594v46.242C300.812,366.219,292.751,374.279,282.841,374.279z" data-original="#000000" class="active-path" data-old_color="#FDFAFA" fill="#F9F9F9"/>
		</g>
		<path d="M160.439,169.697H28.518c-9.909,0-17.97,8.061-17.97,17.97v168.642c0,9.908,8.061,17.969,17.97,17.969h27.73    c2.118,13.836,14.064,24.48,28.483,24.48c15.91,0,28.853-12.943,28.853-28.852s-12.943-28.852-28.853-28.852    c-5.342,0-10.558,1.473-15.087,4.256c-2.056,1.268-2.698,3.957-1.434,6.014c1.268,2.059,3.958,2.697,6.013,1.434    c3.151-1.936,6.783-2.959,10.507-2.959c11.089,0,20.11,9.02,20.11,20.107s-9.021,20.109-20.11,20.109    c-11.088,0-20.107-9.021-20.107-20.109c0-2.414-1.957-4.371-4.372-4.371H28.517c-5.088,0-9.228-4.139-9.228-9.227V187.667    c0-5.088,4.139-9.227,9.228-9.227h131.919c5.088,0,9.229,4.139,9.229,9.227v23.122c0,2.414,1.957,4.371,4.372,4.371    c2.415,0,4.371-1.957,4.371-4.371v-23.122C178.411,177.758,170.348,169.697,160.439,169.697z" data-original="#000000" class="active-path" data-old_color="#FDFAFA" fill="#F9F9F9"/>
		<path d="M222.999,341.057c-5.344,0-10.559,1.473-15.088,4.256c-2.057,1.266-2.697,3.957-1.434,6.014    c1.268,2.059,3.963,2.697,6.014,1.434c3.15-1.936,6.783-2.959,10.508-2.959c11.088,0,20.107,9.02,20.107,20.107    s-9.02,20.109-20.107,20.109s-20.107-9.021-20.107-20.109c0-2.414-1.957-4.371-4.372-4.371c-0.187,0-0.906,0-1.093,0H125.08    c-2.415,0-4.372,1.957-4.372,4.371s1.957,4.371,4.372,4.371h69.436c2.119,13.836,14.066,24.48,28.484,24.48    c15.908,0,28.85-12.943,28.85-28.852S238.907,341.057,222.999,341.057z" data-original="#000000" class="active-path" data-old_color="#FDFAFA" fill="#F9F9F9"/>
	</g>
	<g>
		<path d="M356.097,150.374H248.64c-13.223,0-23.98-10.757-23.98-23.981V34.959c0-2.415,1.957-4.372,4.371-4.372    s4.371,1.957,4.371,4.372v91.433c0,8.403,6.836,15.239,15.238,15.239h107.457c2.416,0,4.371,1.957,4.371,4.371    C360.468,148.417,358.513,150.374,356.097,150.374z" data-original="#000000" class="active-path" data-old_color="#FDFAFA" fill="#F9F9F9"/>
	</g>
	<g>
		<path d="M317.786,271.863c-1.443,0-2.857-0.715-3.689-2.021c-1.297-2.035-0.699-4.74,1.338-6.037    c44.801-28.553,69.529-81.049,62.994-133.741c-4.545-36.666-23.096-69.366-52.236-92.078    C297.052,15.273,260.804,5.259,224.147,9.816c-69.061,8.561-121.215,67.409-121.315,136.887c-0.003,2.412-1.96,4.365-4.372,4.365    c0,0-0.003,0-0.007,0c-2.413-0.004-4.368-1.964-4.365-4.378C94.194,72.814,149.645,10.241,223.073,1.138    c38.984-4.828,77.514,5.805,108.494,29.953c30.984,24.147,50.707,58.915,55.541,97.897    c6.947,56.022-19.344,111.836-66.975,142.191C319.403,271.643,318.591,271.863,317.786,271.863z" data-original="#000000" class="active-path" data-old_color="#FDFAFA" fill="#F9F9F9"/>
	</g>
</g></g> </svg>
